<?xml version="1.0" standalone="no"?>
<!DOCTYPE svg PUBLIC "-//W3C//DTD SVG 20010904//EN"
 "http://www.w3.org/TR/2001/REC-SVG-20010904/DTD/svg10.dtd">
<svg version="1.0" xmlns="http://www.w3.org/2000/svg"
 width="500.000000pt" height="500.000000pt" viewBox="0 0 500.000000 500.000000"
 preserveAspectRatio="xMidYMid meet">

<g transform="translate(0.000000,500.000000) scale(0.100000,-0.100000)"
fill="#000000" stroke="none">
<path d="M2345 4939 c-605 -36 -1187 -307 -1613 -754 -119 -124 -243 -287
-329 -430 -516 -859 -457 -1942 150 -2745 94 -124 286 -322 412 -423 525 -424
1208 -614 1873 -522 514 72 986 300 1359 659 184 176 317 346 441 564 450 787
418 1788 -82 2547 -132 200 -278 366 -459 521 -487 417 -1101 621 -1752 583z
m355 -90 c929 -84 1701 -672 2024 -1543 97 -258 140 -510 140 -811 0 -387 -71
-698 -239 -1040 -235 -481 -608 -853 -1090 -1086 -239 -115 -428 -174 -695
-216 -161 -25 -508 -25 -675 1 -892 136 -1620 747 -1905 1596 -194 581 -148
1237 125 1788 123 249 264 443 462 639 488 483 1179 734 1853 672z"/>
<path d="M2817 3264 c-186 -45 -313 -185 -377 -414 -11 -41 -36 -183 -55 -315
-40 -273 -63 -371 -105 -455 -63 -124 -143 -174 -280 -174 -109 0 -186 32
-258 108 -107 113 -152 231 -159 421 -10 254 58 448 212 602 l82 82 -43 42
c-42 41 -43 42 -68 26 -88 -58 -205 -216 -254 -345 -51 -133 -65 -225 -60
-407 6 -178 21 -244 84 -365 99 -190 247 -294 434 -307 244 -17 403 113 484
397 13 47 40 199 60 338 20 139 46 283 57 320 63 205 174 303 362 318 219 19
394 -124 469 -381 32 -111 32 -359 0 -481 -54 -211 -174 -369 -340 -451 l-54
-26 45 -45 45 -45 46 23 c180 87 330 285 387 510 27 108 37 347 19 456 -48
299 -237 530 -470 574 -72 14 -193 11 -263 -6z"/>
</g>
</svg>
